<svg xmlns="http://www.w3.org/2000/svg" width="45" height="31.5" viewBox="0 0 45 31.5">
  <path id="Icon_awesome-vote-yea" data-name="Icon awesome-vote-yea" d="M42.75,22.5h-4.5V27h1.575a.627.627,0,0,1,.675.563v1.125a.627.627,0,0,1-.675.563H5.175a.627.627,0,0,1-.675-.562V27.563A.627.627,0,0,1,5.175,27H6.75V22.5H2.25A2.248,2.248,0,0,0,0,24.75V31.5a2.248,2.248,0,0,0,2.25,2.25h40.5A2.248,2.248,0,0,0,45,31.5V24.75A2.248,2.248,0,0,0,42.75,22.5ZM36,27V4.521A2.27,2.27,0,0,0,33.729,2.25H11.278A2.276,2.276,0,0,0,9,4.521V27ZM14.85,14.2l1.793-1.779a.749.749,0,0,1,1.069.007l2.9,2.925,6.694-6.637a.749.749,0,0,1,1.069.007l1.779,1.793a.749.749,0,0,1-.007,1.069l-9.021,8.944a.749.749,0,0,1-1.069-.007l-5.21-5.252a.749.749,0,0,1,0-1.069Z" transform="translate(0 -2.25)" fill="#bf625a"/>
</svg>
